<svg xmlns="http://www.w3.org/2000/svg" width="600" height="400" viewBox="0 0 600 400">
  <defs>
    <linearGradient id="bgGrad" x1="0%" y1="0%" x2="100%" y2="100%">
      <stop offset="0%" style="stop-color:#f8f9fa;stop-opacity:1" />
      <stop offset="100%" style="stop-color:#e9ecef;stop-opacity:1" />
    </linearGradient>
    <filter id="shadow" x="-20%" y="-20%" width="140%" height="140%">
      <feDropShadow dx="2" dy="2" stdDeviation="3" flood-color="#000" flood-opacity="0.2"/>
    </filter>
    <marker id="arrowhead" markerWidth="10" markerHeight="7" refX="10" refY="3.5" orient="auto">
      <polygon points="0 0, 10 3.5, 0 7" fill="#666"/>
    </marker>
    <marker id="redArrow" markerWidth="10" markerHeight="7" refX="10" refY="3.5" orient="auto">
      <polygon points="0 0, 10 3.5, 0 7" fill="#e74c3c"/>
    </marker>
  </defs>
  
  <rect width="600" height="400" fill="url(#bgGrad)"/>
  
  <!-- Ejes mejorados con grid -->
  <line x1="50" y1="350" x2="550" y2="350" stroke="#333" stroke-width="2"/>
  <line x1="50" y1="50" x2="50" y2="350" stroke="#333" stroke-width="2"/>
  
  <!-- Etiquetas de ejes -->
  <text x="300" y="380" font-family="Arial" font-size="16" fill="#333" font-weight="bold" text-anchor="middle">Tiempo</text>
  <text x="25" y="200" font-family="Arial" font-size="16" fill="#333" font-weight="bold" text-anchor="middle" transform="rotate(-90, 20, 200)">Nivel</text>
  
  <!-- Grid líneas horizontales -->
  <line x1="50" y1="100" x2="550" y2="100" stroke="#ddd" stroke-width="1" stroke-dasharray="3,3"/>
  <line x1="50" y1="200" x2="550" y2="200" stroke="#888" stroke-width="1.5" stroke-dasharray="5,5"/>
  <line x1="50" y1="300" x2="550" y2="300" stroke="#ddd" stroke-width="1" stroke-dasharray="3,3"/>
  
  <!-- Línea de objetivo -->
  <text x="560" y="205" font-family="Arial" font-size="14" fill="#444" font-weight="bold">Objetivo</text>
  
  <!-- Título mejorado -->
  <text x="300" y="40" font-family="Arial" font-size="22" fill="#0077aa" font-weight="bold" text-anchor="middle" filter="url(#shadow)">Oscilaciones causadas por Retardos</text>
  
  <!-- Curva de oscilación mejorada -->
  <path d="M50,200 C100,150 130,250 180,250 C230,250 280,120 330,120 C380,120 430,280 480,200 C530,120 550,220 550,200" 
        fill="none" stroke="#0077aa" stroke-width="4"/>
  
  <!-- Puntos clave en la oscilación -->
  <circle cx="180" cy="250" r="8" fill="#e74c3c" stroke="white" stroke-width="2"/>
  <circle cx="330" cy="120" r="8" fill="#e74c3c" stroke="white" stroke-width="2"/>
  <circle cx="480" cy="200" r="8" fill="#2ecc71" stroke="white" stroke-width="2"/>
  
  <!-- Etiquetas para los retardos -->
  <line x1="180" y1="250" x2="150" y2="280" stroke="#e74c3c" stroke-width="1.5" stroke-dasharray="3,3" marker-end="url(#redArrow)"/>
  <rect x="90" y="280" width="100" height="25" rx="5" fill="white" stroke="#e74c3c" stroke-width="1" opacity="0.9"/>
  <text x="140" y="297" font-family="Arial" font-size="14" font-weight="bold" fill="#e74c3c" text-anchor="middle">Retardo 1</text>
  
  <line x1="330" y1="120" x2="300" y2="90" stroke="#e74c3c" stroke-width="1.5" stroke-dasharray="3,3" marker-end="url(#redArrow)"/>
  <rect x="240" y="65" width="100" height="25" rx="5" fill="white" stroke="#e74c3c" stroke-width="1" opacity="0.9"/>
  <text x="290" y="83" font-family="Arial" font-size="14" font-weight="bold" fill="#e74c3c" text-anchor="middle">Retardo 2</text>
  
  <!-- Punto de estabilización -->
  <line x1="480" y1="200" x2="510" y2="170" stroke="#2ecc71" stroke-width="1.5" stroke-dasharray="3,3"/>
  <rect x="470" y="145" width="100" height="25" rx="5" fill="white" stroke="#2ecc71" stroke-width="1" opacity="0.9"/>
  <text x="520" y="163" font-family="Arial" font-size="14" font-weight="bold" fill="#2ecc71" text-anchor="middle">Estabilización</text>
  
  <!-- Leyenda explicativa -->
  <rect x="100" y="320" width="400" height="70" rx="5" fill="#eaf4f9" stroke="#0077aa" stroke-width="1" filter="url(#shadow)" opacity="0.9"/>
  <text x="120" y="340" font-family="Arial" font-size="14" font-weight="bold" fill="#333">Retardos en niveles generan oscilaciones porque:</text>
  <text x="120" y="365" font-family="Arial" font-size="13" fill="#333">• Las acciones correctivas no tienen efecto inmediato</text>
  <text x="120" y="385" font-family="Arial" font-size="13" fill="#333">• El sistema tiende a sobre-compensar, generando ciclos</text>
</svg>
